{
    "asset" : {
        "generator" : "Khronos glTF Blender I/O v3.3.32",
        "version" : "2.0"
    },
    "scene" : 0,
    "scenes" : [
        {
            "name" : "Scene",
            "nodes" : [
                0
            ]
        }
    ],
    "nodes" : [
        {
            "mesh" : 0,
            "name" : "AR_Veado_Applied",
            "rotation" : [
                0.5650067925453186,
                0.07984574884176254,
                -0.05505889654159546,
                0.819365918636322
            ]
        }
    ],
    "animations" : [
        {
            "channels" : [
                {
                    "sampler" : 0,
                    "target" : {
                        "node" : 0,
                        "path" : "translation"
                    }
                },
                {
                    "sampler" : 1,
                    "target" : {
                        "node" : 0,
                        "path" : "rotation"
                    }
                },
                {
                    "sampler" : 2,
                    "target" : {
                        "node" : 0,
                        "path" : "scale"
                    }
                }
            ],
            "name" : "AR_Veado_Applied",
            "samplers" : [
                {
                    "input" : 4,
                    "interpolation" : "LINEAR",
                    "output" : 5
                },
                {
                    "input" : 4,
                    "interpolation" : "LINEAR",
                    "output" : 6
                },
                {
                    "input" : 4,
                    "interpolation" : "LINEAR",
                    "output" : 7
                }
            ]
        }
    ],
    "materials" : [
        {
            "doubleSided" : true,
            "name" : "AR_Veado",
            "normalTexture" : {
                "index" : 0
            },
            "pbrMetallicRoughness" : {
                "baseColorTexture" : {
                    "index" : 1
                },
                "metallicFactor" : 0,
                "metallicRoughnessTexture" : {
                    "index" : 2
                }
            }
        }
    ],
    "meshes" : [
        {
            "name" : "RetopoFlow.016",
            "primitives" : [
                {
                    "attributes" : {
                        "POSITION" : 0,
                        "NORMAL" : 1,
                        "TEXCOORD_0" : 2
                    },
                    "indices" : 3,
                    "material" : 0
                }
            ]
        }
    ],
    "textures" : [
        {
            "sampler" : 0,
            "source" : 0
        },
        {
            "sampler" : 0,
            "source" : 1
        },
        {
            "sampler" : 0,
            "source" : 2
        }
    ],
    "images" : [
        {
            "mimeType" : "image/png",
            "name" : "T_AR_Veado_NORMAL",
            "uri" : "T_AR_Veado_NORMAL.png"
        },
        {
            "mimeType" : "image/png",
            "name" : "T_AR_Veado_DIFF",
            "uri" : "T_AR_Veado_DIFF.png"
        },
        {
            "mimeType" : "image/png",
            "name" : "T_AR_Veado_ROUGH",
            "uri" : "T_AR_Veado_ROUGH.png"
        }
    ],
    "accessors" : [
        {
            "bufferView" : 0,
            "componentType" : 5126,
            "count" : 1399,
            "max" : [
                0.44118186831474304,
                0.3982333540916443,
                0.4814862906932831
            ],
            "min" : [
                -0.566586971282959,
                -0.05369533598423004,
                -0.5360708832740784
            ],
            "type" : "VEC3"
        },
        {
            "bufferView" : 1,
            "componentType" : 5126,
            "count" : 1399,
            "type" : "VEC3"
        },
        {
            "bufferView" : 2,
            "componentType" : 5126,
            "count" : 1399,
            "type" : "VEC2"
        },
        {
            "bufferView" : 3,
            "componentType" : 5123,
            "count" : 7218,
            "type" : "SCALAR"
        },
        {
            "bufferView" : 4,
            "componentType" : 5126,
            "count" : 121,
            "max" : [
                5
            ],
            "min" : [
                0
            ],
            "type" : "SCALAR"
        },
        {
            "bufferView" : 5,
            "componentType" : 5126,
            "count" : 121,
            "type" : "VEC3"
        },
        {
            "bufferView" : 6,
            "componentType" : 5126,
            "count" : 121,
            "type" : "VEC4"
        },
        {
            "bufferView" : 7,
            "componentType" : 5126,
            "count" : 121,
            "type" : "VEC3"
        }
    ],
    "bufferViews" : [
        {
            "buffer" : 0,
            "byteLength" : 16788,
            "byteOffset" : 0,
            "target" : 34962
        },
        {
            "buffer" : 0,
            "byteLength" : 16788,
            "byteOffset" : 16788,
            "target" : 34962
        },
        {
            "buffer" : 0,
            "byteLength" : 11192,
            "byteOffset" : 33576,
            "target" : 34962
        },
        {
            "buffer" : 0,
            "byteLength" : 14436,
            "byteOffset" : 44768,
            "target" : 34963
        },
        {
            "buffer" : 0,
            "byteLength" : 484,
            "byteOffset" : 59204
        },
        {
            "buffer" : 0,
            "byteLength" : 1452,
            "byteOffset" : 59688
        },
        {
            "buffer" : 0,
            "byteLength" : 1936,
            "byteOffset" : 61140
        },
        {
            "buffer" : 0,
            "byteLength" : 1452,
            "byteOffset" : 63076
        }
    ],
    "samplers" : [
        {
            "magFilter" : 9729,
            "minFilter" : 9987
        }
    ],
    "buffers" : [
        {
            "byteLength" : 64528,
            "uri" : "Veado.bin"
        }
    ]
}
