{
    "asset" : {
        "generator" : "Khronos glTF Blender I/O v3.3.32",
        "version" : "2.0"
    },
    "scene" : 0,
    "scenes" : [
        {
            "name" : "Scene",
            "nodes" : [
                0
            ]
        }
    ],
    "nodes" : [
        {
            "mesh" : 0,
            "name" : "AR_Desfiladeiro"
        }
    ],
    "materials" : [
        {
            "doubleSided" : true,
            "name" : "0402.002",
            "normalTexture" : {
                "index" : 0
            },
            "pbrMetallicRoughness" : {
                "baseColorTexture" : {
                    "index" : 1
                },
                "metallicFactor" : 0,
                "metallicRoughnessTexture" : {
                    "index" : 2
                }
            }
        }
    ],
    "meshes" : [
        {
            "name" : "Plane.001",
            "primitives" : [
                {
                    "attributes" : {
                        "POSITION" : 0,
                        "NORMAL" : 1,
                        "TEXCOORD_0" : 2
                    },
                    "indices" : 3,
                    "material" : 0
                }
            ]
        }
    ],
    "textures" : [
        {
            "sampler" : 0,
            "source" : 0
        },
        {
            "sampler" : 0,
            "source" : 1
        },
        {
            "sampler" : 0,
            "source" : 2
        }
    ],
    "images" : [
        {
            "mimeType" : "image/png",
            "name" : "T_AR_Desfiladeiro_NORMAL",
            "uri" : "T_AR_Desfiladeiro_NORMAL.png"
        },
        {
            "mimeType" : "image/png",
            "name" : "T_AR_Desfiladeiro_DIFF",
            "uri" : "T_AR_Desfiladeiro_DIFF.png"
        },
        {
            "mimeType" : "image/png",
            "name" : "T_AR_Desfiladeiro_ROUGH",
            "uri" : "T_AR_Desfiladeiro_ROUGH.png"
        }
    ],
    "accessors" : [
        {
            "bufferView" : 0,
            "componentType" : 5126,
            "count" : 19165,
            "max" : [
                0.3197128474712372,
                0.17410945892333984,
                0.48995596170425415
            ],
            "min" : [
                -0.32634568214416504,
                -0.016306418925523758,
                -0.5146072506904602
            ],
            "type" : "VEC3"
        },
        {
            "bufferView" : 1,
            "componentType" : 5126,
            "count" : 19165,
            "type" : "VEC3"
        },
        {
            "bufferView" : 2,
            "componentType" : 5126,
            "count" : 19165,
            "type" : "VEC2"
        },
        {
            "bufferView" : 3,
            "componentType" : 5123,
            "count" : 110649,
            "type" : "SCALAR"
        }
    ],
    "bufferViews" : [
        {
            "buffer" : 0,
            "byteLength" : 229980,
            "byteOffset" : 0,
            "target" : 34962
        },
        {
            "buffer" : 0,
            "byteLength" : 229980,
            "byteOffset" : 229980,
            "target" : 34962
        },
        {
            "buffer" : 0,
            "byteLength" : 153320,
            "byteOffset" : 459960,
            "target" : 34962
        },
        {
            "buffer" : 0,
            "byteLength" : 221298,
            "byteOffset" : 613280,
            "target" : 34963
        }
    ],
    "samplers" : [
        {
            "magFilter" : 9729,
            "minFilter" : 9987
        }
    ],
    "buffers" : [
        {
            "byteLength" : 834580,
            "uri" : "Desfiladeiro.bin"
        }
    ]
}
